<svg width="16" height="16" viewBox="0 0 16 16" fill="none" xmlns="http://www.w3.org/2000/svg">
<path d="M13.25 1.625V7.625V14.375C13.25 14.7202 12.9702 15 12.625 15C12.2798 15 12 14.7202 12 14.375V7.625V1.625C12 1.27981 12.2798 1 12.625 1C12.9702 1 13.25 1.27981 13.25 1.625Z" fill="#BEBFC7"/>
<path d="M8.25 4.625V7.625V14.375C8.25 14.7202 7.97019 15 7.625 15C7.27981 15 7 14.7202 7 14.375V7.625V4.625C7 4.27981 7.27981 4 7.625 4C7.97019 4 8.25 4.27981 8.25 4.625Z" fill="#BEBFC7"/>
<path d="M2.625 7C2.97019 7 3.25 7.27981 3.25 7.625V14.375C3.25 14.7202 2.97019 15 2.625 15C2.27981 15 2 14.7202 2 14.375V7.625C2 7.27981 2.27981 7 2.625 7Z" fill="#BEBFC7"/>
</svg>
