<svg width="16" height="16" viewBox="0 0 16 16" fill="none" xmlns="http://www.w3.org/2000/svg">
<g clip-path="url(#clip0_52_988)">
<path d="M15.3333 7.3335H0.666666C0.298477 7.3335 0 7.63197 0 8.00016C0 8.36835 0.298477 8.66683 0.666666 8.66683H15.3333C15.7015 8.66683 16 8.36835 16 8.00016C16 7.63197 15.7015 7.3335 15.3333 7.3335Z" fill="#BEBFC7"/>
<path d="M15.3333 2.6665H0.666666C0.298477 2.6665 0 2.96498 0 3.33317C0 3.70136 0.298477 3.99983 0.666666 3.99983H15.3333C15.7015 3.99983 16 3.70136 16 3.33317C16 2.96498 15.7015 2.6665 15.3333 2.6665Z" fill="#BEBFC7"/>
<path d="M15.3333 12H0.666666C0.298477 12 0 12.2985 0 12.6667C0 13.0349 0.298477 13.3333 0.666666 13.3333H15.3333C15.7015 13.3333 16 13.0349 16 12.6667C16 12.2985 15.7015 12 15.3333 12Z" fill="#BEBFC7"/>
</g>
<defs>
<clipPath id="clip0_52_988">
<rect width="16" height="16" fill="white"/>
</clipPath>
</defs>
</svg>
