<svg width="40" height="40" viewBox="0 0 40 40" fill="none" xmlns="http://www.w3.org/2000/svg">
<circle cx="20" cy="20" r="20" fill="white"/>
<g clip-path="url(#clip0_55_6722)">
<path d="M27.8414 19.6153L22.387 14.1609C22.191 13.9321 21.8467 13.9054 21.6179 14.1014C21.3891 14.2973 21.3624 14.6417 21.5584 14.8705C21.5767 14.8918 21.5966 14.9117 21.6179 14.9299L26.1396 19.4571H12.5454C12.2442 19.4571 12 19.7014 12 20.0026C12 20.3039 12.2442 20.548 12.5454 20.548H26.1396L21.6179 25.0698C21.3891 25.2657 21.3624 25.61 21.5584 25.8388C21.7544 26.0676 22.0987 26.0943 22.3275 25.8983C22.3488 25.88 22.3687 25.8602 22.387 25.8388L27.8414 20.3844C28.0529 20.1717 28.0529 19.8281 27.8414 19.6153Z" fill="#5D6070"/>
</g>
<defs>
<clipPath id="clip0_55_6722">
<rect width="16" height="16" fill="white" transform="translate(12 12)"/>
</clipPath>
</defs>
</svg>
