<svg width="40" height="40" viewBox="0 0 40 40" fill="none" xmlns="http://www.w3.org/2000/svg">
<circle cx="20" cy="20" r="20" transform="rotate(-180 20 20)" fill="white"/>
<g clip-path="url(#clip0_55_6729)">
<path d="M12.1586 20.3847L17.613 25.8391C17.809 26.0679 18.1533 26.0946 18.3821 25.8986C18.6109 25.7027 18.6376 25.3583 18.4416 25.1295C18.4233 25.1082 18.4034 25.0883 18.3821 25.0701L13.8604 20.5429L27.4546 20.5429C27.7558 20.5429 28 20.2986 28 19.9974C28 19.6961 27.7558 19.452 27.4546 19.452L13.8604 19.4519L18.3821 14.9302C18.6109 14.7343 18.6376 14.39 18.4416 14.1612C18.2456 13.9324 17.9013 13.9057 17.6725 14.1017C17.6512 14.12 17.6313 14.1398 17.613 14.1612L12.1586 19.6156C11.9471 19.8283 11.9471 20.1719 12.1586 20.3847Z" fill="#5D6070"/>
</g>
<defs>
<clipPath id="clip0_55_6729">
<rect width="16" height="16" fill="white" transform="translate(28 28) rotate(-180)"/>
</clipPath>
</defs>
</svg>
