<svg width="16" height="16" viewBox="0 0 16 16" fill="none" xmlns="http://www.w3.org/2000/svg">
<path d="M10.9876 0.1875H5.01885C2.35635 0.1875 0.193848 2.35 0.193848 5.0125V10.9813C0.193848 13.6438 2.35635 15.8062 5.01885 15.8062H10.9876C13.6501 15.8062 15.8126 13.6438 15.8126 10.9813V5.0125C15.8126 2.35 13.6501 0.1875 10.9876 0.1875ZM14.0688 10.9875C14.0688 12.6875 12.6876 14.075 10.9813 14.075H5.0126C3.3126 14.075 1.9251 12.6937 1.9251 10.9875V5.01875C1.9251 3.31875 3.30635 1.93125 5.0126 1.93125H10.9813C12.6813 1.93125 14.0688 3.3125 14.0688 5.01875V10.9875Z" fill="white"/>
<path d="M8.0001 4.00635C5.8001 4.00635 4.00635 5.8001 4.00635 8.0001C4.00635 10.2001 5.8001 11.9938 8.0001 11.9938C10.2001 11.9938 11.9938 10.2001 11.9938 8.0001C11.9938 5.8001 10.2001 4.00635 8.0001 4.00635ZM8.0001 10.4251C6.6626 10.4251 5.5751 9.3376 5.5751 8.0001C5.5751 6.6626 6.6626 5.5751 8.0001 5.5751C9.3376 5.5751 10.4251 6.6626 10.4251 8.0001C10.4251 9.3376 9.3376 10.4251 8.0001 10.4251Z" fill="white"/>
<path d="M12.298 4.44419C12.6659 4.38454 12.9159 4.0379 12.8562 3.66995C12.7966 3.30201 12.4499 3.05208 12.082 3.11173C11.7141 3.17137 11.4641 3.51801 11.5238 3.88596C11.5834 4.25391 11.9301 4.50383 12.298 4.44419Z" fill="white"/>
</svg>
