<svg width="14" height="18" viewBox="0 0 14 18" fill="none" xmlns="http://www.w3.org/2000/svg">
<path d="M6.99989 0.579102C6.15963 0.579102 5.33824 0.828268 4.63959 1.29509C3.94094 1.76191 3.39641 2.42543 3.07486 3.20172C2.75331 3.97802 2.66917 4.83224 2.8331 5.65635C2.99703 6.48047 3.40165 7.23746 3.9958 7.83162C4.58995 8.42577 5.34695 8.83039 6.17106 8.99432C6.99518 9.15825 7.84939 9.07411 8.62569 8.75256C9.40198 8.43101 10.0655 7.88648 10.5323 7.18783C10.9991 6.48918 11.2483 5.66779 11.2483 4.82753C11.2486 4.26954 11.1389 3.71697 10.9255 3.2014C10.7121 2.68583 10.3991 2.21738 10.0046 1.82282C9.61003 1.42826 9.14158 1.11534 8.62602 0.901931C8.11045 0.688526 7.55788 0.578825 6.99989 0.579102ZM6.99989 6.94542C6.58101 6.94542 6.17153 6.82121 5.82325 6.58849C5.47496 6.35578 5.20351 6.02501 5.04321 5.63801C4.88291 5.25102 4.84097 4.82518 4.92269 4.41435C5.00441 4.00351 5.20612 3.62614 5.50231 3.32995C5.7985 3.03375 6.17588 2.83204 6.58671 2.75033C6.99754 2.66861 7.42338 2.71055 7.81037 2.87085C8.19736 3.03114 8.52814 3.3026 8.76085 3.65089C8.99357 3.99917 9.11778 4.40865 9.11778 4.82753C9.11806 5.10573 9.06347 5.38126 8.95713 5.63834C8.85079 5.89542 8.6948 6.129 8.49808 6.32572C8.30136 6.52244 8.06778 6.67844 7.8107 6.78477C7.55362 6.89111 7.27809 6.9457 6.99989 6.94542Z" fill="white"/>
<path d="M13.261 9.7266C13.1685 9.56143 13.0444 9.41613 12.8957 9.299C12.7469 9.18186 12.5766 9.0952 12.3943 9.04397C12.2121 8.99274 12.0216 8.97794 11.8336 9.00043C11.6456 9.02292 11.4639 9.08225 11.2989 9.17502C8.4063 10.7961 5.59367 10.7961 2.70104 9.17502C2.53516 9.08241 2.35266 9.02337 2.16397 9.00128C1.97527 8.97919 1.78407 8.99449 1.60129 9.0463C1.4185 9.0981 1.24771 9.1854 1.09867 9.30321C0.949621 9.42102 0.825239 9.56704 0.732622 9.73292C0.640006 9.8988 0.580969 10.0813 0.558882 10.27C0.536795 10.4587 0.552092 10.6499 0.603897 10.8327C0.708522 11.2018 0.955507 11.5143 1.29052 11.7013C2.23948 12.2399 3.25328 12.6552 4.30736 12.9371L2.26104 14.9834C1.99223 15.2523 1.84121 15.6169 1.84121 15.9971C1.84121 16.3773 1.99223 16.742 2.26104 17.0108C2.5299 17.2796 2.89453 17.4306 3.27472 17.4306C3.65492 17.4306 4.01955 17.2796 4.28841 17.0108L6.99998 14.2887L9.71156 17.0003C9.98042 17.2691 10.345 17.4201 10.7252 17.4201C11.1054 17.4201 11.4701 17.2691 11.7389 17.0003C12.0077 16.7314 12.1588 16.3668 12.1588 15.9866C12.1588 15.6064 12.0077 15.2418 11.7389 14.9729L9.69261 12.9266C10.7467 12.6447 11.7605 12.2294 12.7095 11.6908C12.8749 11.5983 13.0204 11.4741 13.1378 11.3252C13.2551 11.1763 13.3418 11.0057 13.3931 10.8232C13.4443 10.6407 13.4591 10.4499 13.4364 10.2618C13.4137 10.0736 13.3541 9.89171 13.261 9.7266Z" fill="white"/>
</svg>
