<svg width="20" height="13" viewBox="0 0 20 13" fill="none" xmlns="http://www.w3.org/2000/svg">
<path d="M19.2218 12.2617C18.7564 12.3272 16.48 12.2617 16.3618 12.2617C15.7734 12.2692 15.2057 12.0445 14.7818 11.6362C14.3018 11.1744 13.8727 10.6653 13.4036 10.1817C13.2649 10.0349 13.1147 9.8993 12.9545 9.77624C12.58 9.48715 12.2091 9.55261 12.0327 9.99443C11.8949 10.4719 11.7988 10.9604 11.7454 11.4544C11.7145 11.9017 11.4309 12.1817 10.9291 12.2126C10.6182 12.229 10.3073 12.2344 9.99999 12.2272C8.88017 12.22 7.77797 11.9477 6.78362 11.4326C5.70775 10.8331 4.77039 10.0134 4.03271 9.02715C2.81999 7.47806 1.85089 5.77624 0.985438 4.02169C0.939983 3.93442 0.05271 2.04714 0.0308918 1.95805C-0.0491082 1.65987 0.0308922 1.37441 0.276347 1.27623C0.432711 1.21623 3.35635 1.27623 3.40544 1.27623C3.62279 1.27435 3.8351 1.3417 4.01162 1.46853C4.18814 1.59536 4.3197 1.77509 4.38726 1.98169C4.92772 3.36554 5.66767 4.66291 6.58362 5.8326C6.71182 5.98901 6.86184 6.12618 7.02908 6.23988C7.26726 6.40169 7.49272 6.34533 7.5909 6.07078C7.70724 5.68985 7.77565 5.29591 7.79454 4.89806C7.8109 4.10896 7.79453 3.58896 7.7509 2.80169C7.72181 2.29623 7.54363 1.8526 6.79817 1.71078C6.56908 1.67078 6.54908 1.48169 6.69635 1.2926C7.00363 0.899869 7.42362 0.83805 7.89453 0.814414C8.59635 0.774414 9.29817 0.801687 9.99999 0.814414H10.1527C10.4582 0.8133 10.7629 0.844381 11.0618 0.907142C11.2385 0.942878 11.399 1.03476 11.5192 1.16909C11.6394 1.30343 11.7131 1.47302 11.7291 1.6526C11.765 1.85171 11.7802 2.05399 11.7745 2.25623C11.7564 3.11805 11.7145 3.97806 11.7054 4.83987C11.6971 5.1811 11.7282 5.52216 11.7982 5.85624C11.8982 6.31442 12.2127 6.42897 12.5254 6.09806C12.9304 5.67027 13.3018 5.21195 13.6364 4.72715C14.228 3.84358 14.716 2.89493 15.0909 1.89987C15.2945 1.38896 15.4545 1.27623 16 1.27623H19.1018C19.2863 1.273 19.4701 1.29751 19.6473 1.34896C19.71 1.36544 19.7686 1.39468 19.8195 1.43486C19.8703 1.47505 19.9124 1.5253 19.9429 1.58248C19.9735 1.63966 19.9919 1.70253 19.997 1.76716C20.0021 1.83178 19.9939 1.89677 19.9727 1.95805C19.82 2.63805 19.4527 3.21805 19.0636 3.77624C18.4327 4.67078 17.7673 5.54169 17.1218 6.42169C17.0402 6.5384 16.9655 6.65983 16.8982 6.78533C16.6545 7.22351 16.6727 7.46897 17.0255 7.83442C17.5891 8.4126 18.1909 8.95624 18.7345 9.55261C19.1337 9.98615 19.4939 10.454 19.8109 10.9508C20.2091 11.5672 19.9636 12.1562 19.2218 12.2617Z" fill="white"/>
</svg>
