<svg width="24" height="24" viewBox="0 0 24 24" fill="none" xmlns="http://www.w3.org/2000/svg">
<path d="M23.1279 4.28571H6.02199L5.21905 0.672857C5.12741 0.278571 4.77395 0 4.36376 0H0.872752C0.392738 0 0 0.385714 0 0.857143C0 1.32857 0.392738 1.71429 0.872752 1.71429H3.66119L6.34927 13.7786C4.96596 14.0657 3.92738 15.2743 3.92738 16.7143C3.92738 18.3686 5.2976 19.7143 6.98201 19.7143H19.4187C19.8987 19.7143 20.2915 19.3286 20.2915 18.8571C20.2915 18.3857 19.8987 18 19.4187 18H6.98201C6.26199 18 5.67288 17.4214 5.67288 16.7143C5.67288 16.0071 6.26199 15.4286 6.98201 15.4286H7.41839H19.4187H19.6369C20.0035 15.4286 20.3307 15.2014 20.4573 14.8629L23.9483 5.43428C24.0443 5.17286 24.005 4.87714 23.8436 4.65C23.6777 4.42285 23.4116 4.28571 23.1279 4.28571ZM19.026 13.7143H8.12095L6.40163 6H21.8799L19.026 13.7143Z" fill="#111111"/>
<path d="M7.4185 23.9999C8.14151 23.9999 8.72763 23.4243 8.72763 22.7142C8.72763 22.0041 8.14151 21.4285 7.4185 21.4285C6.69549 21.4285 6.10938 22.0041 6.10938 22.7142C6.10938 23.4243 6.69549 23.9999 7.4185 23.9999Z" fill="#111111"/>
<path d="M17.0186 23.9999C17.7416 23.9999 18.3277 23.4243 18.3277 22.7142C18.3277 22.0041 17.7416 21.4285 17.0186 21.4285C16.2956 21.4285 15.7095 22.0041 15.7095 22.7142C15.7095 23.4243 16.2956 23.9999 17.0186 23.9999Z" fill="#111111"/>
</svg>
