<svg width="103" height="72" viewBox="0 0 103 72" fill="none" xmlns="http://www.w3.org/2000/svg">
<g clip-path="url(#clip0_152_2818)">
<path d="M6 45.6586V5.85376H14.2036L29.439 28.0977L45.8462 5.85376H50.534L45.8462 25.7562H51.706V45.6586H41.1584V30.4391L29.439 48.0001L17.7195 30.4391V45.6586H6Z" fill="#111111"/>
<path d="M70.4571 5.85376H96.2399V17.5611H84.5204V45.6586H72.801V16.3903H62.2534L70.4571 5.85376Z" fill="#111111"/>
<path d="M64.5974 17.3902H74.2107L51.534 45.1919V25.7561V24.7561H50.534H47.0993L52.504 1H73.3122L63.7564 15.8491L62.7647 17.3902H64.5974Z" fill="#FECD05" stroke="white" stroke-width="2"/>
</g>
<path d="M12.0319 71L12.0139 63.458L8.30592 69.668H7.00992L3.30192 63.602V71H0.565918V58.4H2.97792L7.69392 66.23L12.3379 58.4H14.7499L14.7679 71H12.0319Z" fill="#5D6070"/>
<path d="M21.4439 61.172C22.9439 61.172 24.0959 61.532 24.9 62.252C25.704 62.96 26.1059 64.034 26.1059 65.474V71H23.4779V69.794C22.9499 70.694 21.966 71.144 20.5259 71.144C19.7819 71.144 19.1339 71.018 18.5819 70.766C18.042 70.514 17.6279 70.166 17.3399 69.722C17.0519 69.278 16.9079 68.774 16.9079 68.21C16.9079 67.31 17.2439 66.602 17.9159 66.086C18.5999 65.57 19.6499 65.312 21.0659 65.312H23.2979C23.2979 64.7 23.1119 64.232 22.74 63.908C22.368 63.572 21.8099 63.404 21.0659 63.404C20.5499 63.404 20.0399 63.488 19.5359 63.656C19.0439 63.812 18.6239 64.028 18.2759 64.304L17.268 62.342C17.7959 61.97 18.4259 61.682 19.1579 61.478C19.9019 61.274 20.6639 61.172 21.4439 61.172ZM21.2279 69.254C21.7079 69.254 22.1339 69.146 22.5059 68.93C22.8779 68.702 23.1419 68.372 23.2979 67.94V66.95H21.3719C20.2199 66.95 19.6439 67.328 19.6439 68.084C19.6439 68.444 19.7819 68.732 20.0579 68.948C20.3459 69.152 20.7359 69.254 21.2279 69.254Z" fill="#5D6070"/>
<path d="M36.3032 63.62H31.3352V71H28.5452V61.316H36.3032V63.62Z" fill="#5D6070"/>
<path d="M37.7913 61.316H40.5813V67.076L45.2973 61.316H47.8713V71H45.0813V65.24L40.3833 71H37.7913V61.316Z" fill="#5D6070"/>
<path d="M59.1746 61.316V71H56.6726V68.228H54.6026L52.7666 71H49.7786L51.9926 67.832C51.3206 67.568 50.8046 67.19 50.4446 66.698C50.0966 66.194 49.9226 65.588 49.9226 64.88C49.9226 63.74 50.3306 62.864 51.1466 62.252C51.9746 61.628 53.1086 61.316 54.5486 61.316H59.1746ZM54.6026 63.602C54.0026 63.602 53.5466 63.71 53.2346 63.926C52.9346 64.142 52.7846 64.49 52.7846 64.97C52.7846 65.45 52.9286 65.804 53.2166 66.032C53.5166 66.248 53.9666 66.356 54.5666 66.356H56.6726V63.602H54.6026Z" fill="#5D6070"/>
<path d="M70.5592 60.776H66.5272V71H63.6472V60.776H59.6332V58.4H70.5592V60.776Z" fill="#5D6070"/>
<path d="M75.7258 71.144C74.7058 71.144 73.7878 70.934 72.9718 70.514C72.1678 70.082 71.5378 69.488 71.0818 68.732C70.6258 67.976 70.3978 67.118 70.3978 66.158C70.3978 65.198 70.6258 64.34 71.0818 63.584C71.5378 62.828 72.1678 62.24 72.9718 61.82C73.7878 61.388 74.7058 61.172 75.7258 61.172C76.7458 61.172 77.6578 61.388 78.4618 61.82C79.2658 62.24 79.8958 62.828 80.3518 63.584C80.8078 64.34 81.0358 65.198 81.0358 66.158C81.0358 67.118 80.8078 67.976 80.3518 68.732C79.8958 69.488 79.2658 70.082 78.4618 70.514C77.6578 70.934 76.7458 71.144 75.7258 71.144ZM75.7258 68.84C76.4458 68.84 77.0338 68.6 77.4898 68.12C77.9578 67.628 78.1918 66.974 78.1918 66.158C78.1918 65.342 77.9578 64.694 77.4898 64.214C77.0338 63.722 76.4458 63.476 75.7258 63.476C75.0058 63.476 74.4118 63.722 73.9438 64.214C73.4758 64.694 73.2418 65.342 73.2418 66.158C73.2418 66.974 73.4758 67.628 73.9438 68.12C74.4118 68.6 75.0058 68.84 75.7258 68.84Z" fill="#5D6070"/>
<path d="M87.2331 67.328H85.7751V71H82.9671V61.316H85.7751V65.078H87.2871L89.9151 61.316H92.9031L89.5191 65.96L93.1371 71H89.8251L87.2331 67.328Z" fill="#5D6070"/>
<path d="M98.1021 61.172C99.6021 61.172 100.754 61.532 101.558 62.252C102.362 62.96 102.764 64.034 102.764 65.474V71H100.136V69.794C99.6082 70.694 98.6242 71.144 97.1842 71.144C96.4401 71.144 95.7922 71.018 95.2402 70.766C94.7001 70.514 94.2862 70.166 93.9982 69.722C93.7102 69.278 93.5662 68.774 93.5662 68.21C93.5662 67.31 93.9022 66.602 94.5742 66.086C95.2581 65.57 96.3082 65.312 97.7242 65.312H99.9562C99.9562 64.7 99.7702 64.232 99.3982 63.908C99.0262 63.572 98.4682 63.404 97.7242 63.404C97.2082 63.404 96.6982 63.488 96.1942 63.656C95.7022 63.812 95.2822 64.028 94.9342 64.304L93.9262 62.342C94.4542 61.97 95.0842 61.682 95.8162 61.478C96.5602 61.274 97.3222 61.172 98.1021 61.172ZM97.8862 69.254C98.3662 69.254 98.7922 69.146 99.1642 68.93C99.5362 68.702 99.8002 68.372 99.9562 67.94V66.95H98.0302C96.8782 66.95 96.3022 67.328 96.3022 68.084C96.3022 68.444 96.4402 68.732 96.7162 68.948C97.0042 69.152 97.3942 69.254 97.8862 69.254Z" fill="#5D6070"/>
<defs>
<clipPath id="clip0_152_2818">
<rect width="90.24" height="48" fill="white" transform="translate(6)"/>
</clipPath>
</defs>
</svg>
