<svg width="40" height="40" viewBox="0 0 40 40" fill="none" xmlns="http://www.w3.org/2000/svg">
<circle cx="20" cy="20" r="20" fill="#FF371C"/>
<path d="M17.2478 11.2H21.7118L20.9678 22.168H17.9918L17.2478 11.2ZM19.4798 28.192C18.8238 28.192 18.2718 27.984 17.8238 27.568C17.3918 27.136 17.1758 26.616 17.1758 26.008C17.1758 25.4 17.3918 24.896 17.8238 24.496C18.2558 24.08 18.8078 23.872 19.4798 23.872C20.1518 23.872 20.7038 24.08 21.1358 24.496C21.5678 24.896 21.7838 25.4 21.7838 26.008C21.7838 26.616 21.5598 27.136 21.1118 27.568C20.6798 27.984 20.1358 28.192 19.4798 28.192Z" fill="white"/>
</svg>
